<mxfile host="app.diagrams.net" modified="2023-03-25T12:51:02.560Z" agent="Mozilla/5.0 (Windows NT 10.0; WOW64) AppleWebKit/537.36 (KHTML, like Gecko) Chrome/109.0.0.0 Safari/537.36" etag="e0IT7Fjv1xtFgmS9SAM1" version="21.1.1" type="device">
  <diagram name="Trang-1" id="cyWKF0aSA8NFhGllIolf">
    <mxGraphModel dx="990" dy="503" grid="1" gridSize="10" guides="1" tooltips="1" connect="1" arrows="1" fold="1" page="1" pageScale="1" pageWidth="827" pageHeight="1169" math="0" shadow="0">
      <root>
        <mxCell id="0" />
        <mxCell id="1" parent="0" />
        <mxCell id="BDGrQYWAilmbFyPXTp3L-7" value="Entity" style="swimlane;childLayout=stackLayout;horizontal=1;startSize=50;horizontalStack=0;rounded=1;fontSize=14;fontStyle=0;strokeWidth=2;resizeParent=0;resizeLast=1;shadow=0;dashed=0;align=center;arcSize=4;whiteSpace=wrap;html=1;" vertex="1" parent="1">
          <mxGeometry x="330" y="200" width="160" height="120" as="geometry" />
        </mxCell>
        <mxCell id="BDGrQYWAilmbFyPXTp3L-8" value="+Attribute1&#xa;+Attribute2&#xa;+Attribute3" style="align=left;strokeColor=none;fillColor=none;spacingLeft=4;fontSize=12;verticalAlign=top;resizable=0;rotatable=0;part=1;html=1;" vertex="1" parent="BDGrQYWAilmbFyPXTp3L-7">
          <mxGeometry y="50" width="160" height="70" as="geometry" />
        </mxCell>
      </root>
    </mxGraphModel>
  </diagram>
</mxfile>
